<svg width="76" height="76" viewBox="0 0 76 76" fill="none" xmlns="http://www.w3.org/2000/svg">
<path fill-rule="evenodd" clip-rule="evenodd" d="M38 0C17.005 0 0 17.005 0 38C0 54.815 10.8775 69.0175 25.9825 74.0525C27.8825 74.385 28.595 73.245 28.595 72.2475C28.595 71.345 28.5475 68.3525 28.5475 65.17C19 66.9275 16.53 62.8425 15.77 60.705C15.3425 59.6125 13.49 56.24 11.875 55.3375C10.545 54.625 8.645 52.8675 11.8275 52.82C14.82 52.7725 16.9575 55.575 17.67 56.715C21.09 62.4625 26.5525 60.8475 28.7375 59.85C29.07 57.38 30.0675 55.7175 31.16 54.7675C22.705 53.8175 13.87 50.54 13.87 36.005C13.87 31.8725 15.3425 28.4525 17.765 25.7925C17.385 24.8425 16.055 20.9475 18.145 15.7225C18.145 15.7225 21.3275 14.725 28.595 19.6175C31.635 18.7625 34.865 18.335 38.095 18.335C41.325 18.335 44.555 18.7625 47.595 19.6175C54.8625 14.6775 58.045 15.7225 58.045 15.7225C60.135 20.9475 58.805 24.8425 58.425 25.7925C60.8475 28.4525 62.32 31.825 62.32 36.005C62.32 50.5875 53.4375 53.8175 44.9825 54.7675C46.36 55.955 47.5475 58.235 47.5475 61.7975C47.5475 66.88 47.5 70.965 47.5 72.2475C47.5 73.245 48.2125 74.4325 50.1125 74.0525C57.6561 71.5056 64.2111 66.6573 68.8549 60.19C73.4988 53.7227 75.9977 45.9619 76 38C76 17.005 58.995 0 38 0Z" fill="#FFB742"/>
</svg>
